<svg width="48" height="48" viewBox="0 0 48 48" fill="none" xmlns="http://www.w3.org/2000/svg">
<path fill-rule="evenodd" clip-rule="evenodd" d="M23.2761 2.15572C23.1007 2.25377 18.3166 5.90431 12.6448 10.2681C1.41791 18.9059 1.93993 18.4568 2.03041 19.3984C2.11125 20.2393 2.72061 20.7744 3.59649 20.7736C4.09944 20.7732 4.30587 20.6574 5.61192 19.644L6.58122 18.8918L6.6304 20.1702C6.6836 21.5532 6.75136 21.7419 7.35669 22.1939C7.73749 22.4782 8.67041 22.4782 9.05121 22.1939C9.72774 21.6888 9.72489 21.7019 9.76275 18.923L9.79717 16.3975L16.7874 11.0376C20.632 8.08968 23.852 5.67772 23.9429 5.67772C24.0339 5.67772 27.2528 8.08968 31.0961 11.0376L38.0838 16.3975L38.1173 18.923C38.154 21.7021 38.1511 21.6887 38.8277 22.1939C39.2085 22.4782 40.1415 22.4782 40.5223 22.1939C41.1275 21.742 41.1953 21.5531 41.2486 20.1714L41.2977 18.8941L42.3795 19.7334C42.9745 20.1949 43.6008 20.64 43.7713 20.7225C44.418 21.0352 45.1733 20.8343 45.6366 20.2263C46.006 19.7416 46.0346 18.9199 45.6986 18.4479C45.5246 18.2036 26.9676 3.82329 25.043 2.44141C24.3936 1.97505 23.778 1.87553 23.2761 2.15572ZM15.6893 17.8807C14.4535 18.213 13.1787 19.2335 12.6434 20.319C12.5158 20.5778 11.9277 22.501 11.3364 24.5927C10.3697 28.0127 10.2346 28.4154 9.99485 28.5889C9.39346 29.0246 8.35511 30.11 7.93458 30.7423C7.3978 31.5499 6.96153 32.6324 6.77044 33.6314C6.57149 34.6709 6.57611 38.5216 6.77713 39.2934C7.11367 40.5857 8.01512 41.7446 9.13569 42.3257L9.7537 42.6461L9.80337 43.1934C9.90004 44.2592 10.488 45.1321 11.4666 45.6628L12.0887 46H15.2849H18.4812L18.9835 45.735C19.2598 45.5892 19.6175 45.3592 19.7785 45.2237C20.1662 44.8974 20.6597 43.9512 20.7457 43.3692L20.8147 42.9021H23.9395H27.0643L27.1337 43.365C27.2847 44.3726 27.8469 45.1591 28.7757 45.6628L29.3977 46H32.594H35.7903L36.2925 45.735C36.5689 45.5892 36.9266 45.3592 37.0876 45.2237C37.5307 44.8508 37.9939 43.9042 38.0648 43.2265L38.1254 42.646L38.7434 42.3256C39.8638 41.7446 40.7653 40.5857 41.1018 39.2934C41.2959 38.5487 41.3011 34.7265 41.1096 33.6574C40.9328 32.6703 40.4905 31.5639 39.9444 30.7423C39.5249 30.1115 38.4891 29.0284 37.8852 28.5889C37.6482 28.4165 37.5033 27.9913 36.5301 24.6095C35.9307 22.527 35.3229 20.5798 35.1796 20.2823C34.6317 19.146 33.1933 18.0624 31.9168 17.8241C31.5888 17.7629 28.4978 17.7277 23.8032 17.7317C17.5051 17.737 16.1293 17.7623 15.6893 17.8807ZM31.9722 21.1273C32.4948 21.5145 32.6485 21.8994 33.3136 24.4848C33.6751 25.8901 33.9709 27.0684 33.9709 27.1032C33.9709 27.138 29.4519 27.1665 23.9289 27.1665H13.8867L13.9506 26.9124C14.2004 25.917 15.4108 21.891 15.529 21.6626C15.6689 21.392 16.0521 21.0625 16.3668 20.9424C16.4479 20.9114 19.9299 20.894 24.1044 20.9038C31.6379 20.9214 31.6966 20.9231 31.9722 21.1273ZM34.4928 30.4604C36.2479 30.9175 37.642 32.3604 38.0014 34.092C38.0701 34.4228 38.1011 35.4169 38.0825 36.6925C38.0546 38.5987 38.0366 38.7786 37.8495 39.029C37.5095 39.4838 37.185 39.662 36.5279 39.755C35.8707 39.8478 35.5463 40.0261 35.2063 40.481C35.0366 40.7078 34.9981 40.9276 34.9703 41.8271L34.9369 42.9021H32.594H30.2511L30.2178 41.8271C30.1819 40.6656 30.0964 40.4466 29.5074 40.0069C29.241 39.808 29.1353 39.8041 23.9395 39.8041C18.7436 39.8041 18.638 39.808 18.3716 40.0069C17.7826 40.4466 17.6971 40.6656 17.6612 41.8271L17.6279 42.9021H15.2849H12.942L12.9087 41.8271C12.8808 40.9276 12.8424 40.7078 12.6726 40.481C12.3327 40.0261 12.0082 39.8478 11.3511 39.755C10.6939 39.662 10.3695 39.4838 10.0295 39.029C9.84231 38.7786 9.82432 38.5987 9.79648 36.6925C9.7779 35.4169 9.80888 34.4228 9.87752 34.092C10.2325 32.3824 11.6214 30.9292 13.3441 30.4653C14.1358 30.2521 33.6756 30.2476 34.4928 30.4604ZM13.854 33.5962C12.9056 34.0184 12.6394 35.279 13.332 36.0678C13.7719 36.5688 14.0962 36.6262 16.2861 36.5904C18.4051 36.5556 18.478 36.5365 18.9669 35.8816C19.2512 35.5008 19.2512 34.5678 18.9669 34.187C18.4733 33.5261 18.4186 33.5122 16.1878 33.4863C14.6456 33.4684 14.0815 33.495 13.854 33.5962ZM29.5895 33.5962C28.6412 34.0184 28.3749 35.279 29.0675 36.0678C29.5074 36.5688 29.8317 36.6262 32.0216 36.5904C34.1406 36.5556 34.2135 36.5365 34.7024 35.8816C34.9867 35.5008 34.9867 34.5678 34.7024 34.187C34.2089 33.5261 34.1541 33.5122 31.9233 33.4863C30.3811 33.4684 29.817 33.495 29.5895 33.5962Z" fill="#262626" stroke="#262626"/>
</svg>
