<svg width="32" height="32" viewBox="0 0 32 32" fill="none" xmlns="http://www.w3.org/2000/svg">
<path d="M17.3333 14.6667H23.7333C25.2268 14.6667 25.9735 14.6667 26.5439 14.9573C27.0457 15.213 27.4536 15.6209 27.7093 16.1227C28 16.6931 28 17.4399 28 18.9333V28M17.3333 28V8.26667C17.3333 6.77319 17.3333 6.02646 17.0426 5.45603C16.787 4.95426 16.379 4.54631 15.8773 4.29065C15.3068 4 14.5601 4 13.0666 4H8.26663C6.77315 4 6.02642 4 5.45598 4.29065C4.95422 4.54631 4.54627 4.95426 4.29061 5.45603C3.99996 6.02646 3.99996 6.77319 3.99996 8.26667V28M29.3333 28H2.66663M8.66663 9.33333H12.6666M8.66663 14.6667H12.6666M8.66663 20H12.6666" stroke="#262626" stroke-width="3" stroke-linecap="round" stroke-linejoin="round"/>
</svg>
