<svg width="32" height="32" viewBox="0 0 32 32" fill="none" xmlns="http://www.w3.org/2000/svg">
<path d="M6.66663 17.333H10.6666M2.66663 11.9997L5.33329 13.333L7.02748 8.25044C7.37718 7.20134 7.55203 6.6768 7.87634 6.28898C8.16273 5.94652 8.53052 5.68144 8.94597 5.51804C9.41644 5.33301 9.96936 5.33301 11.0752 5.33301H20.9247C22.0306 5.33301 22.5835 5.33301 23.054 5.51804C23.4694 5.68144 23.8372 5.94652 24.1236 6.28898C24.4479 6.6768 24.6227 7.20134 24.9724 8.25044L26.6666 13.333L29.3333 11.9997M21.3333 17.333H25.3333M9.06663 13.333H22.9333C25.1735 13.333 26.2936 13.333 27.1493 13.769C27.9019 14.1525 28.5138 14.7644 28.8973 15.517C29.3333 16.3727 29.3333 17.4928 29.3333 19.733V23.333C29.3333 23.9525 29.3333 24.2623 29.2821 24.5199C29.0716 25.5778 28.2447 26.4047 27.1869 26.6151C26.9293 26.6663 26.6195 26.6663 26 26.6663H25.3333C23.8605 26.6663 22.6666 25.4724 22.6666 23.9997C22.6666 23.6315 22.3681 23.333 22 23.333H9.99996C9.63177 23.333 9.33329 23.6315 9.33329 23.9997C9.33329 25.4724 8.13939 26.6663 6.66663 26.6663H5.99996C5.38042 26.6663 5.07065 26.6663 4.81305 26.6151C3.75521 26.4047 2.92828 25.5778 2.71787 24.5199C2.66663 24.2623 2.66663 23.9525 2.66663 23.333V19.733C2.66663 17.4928 2.66663 16.3727 3.1026 15.517C3.48609 14.7644 4.09802 14.1525 4.85066 13.769C5.70631 13.333 6.82642 13.333 9.06663 13.333Z" stroke="#262626" stroke-width="3" stroke-linecap="round" stroke-linejoin="round"/>
</svg>
