<svg width="32" height="32" viewBox="0 0 32 32" fill="none" xmlns="http://www.w3.org/2000/svg">
<path d="M15.3333 6.6665H15.9125C19.9755 6.6665 22.007 6.6665 22.7781 7.39622C23.4447 8.02699 23.7402 8.95621 23.5602 9.85612C23.352 10.8972 21.6934 12.0703 18.3763 14.4165L12.9569 18.2498C9.63983 20.596 7.98128 21.7692 7.77307 22.8102C7.5931 23.7101 7.88851 24.6393 8.55511 25.2701C9.32627 25.9998 11.3578 25.9998 15.4208 25.9998H16.6666M10.6666 6.6665C10.6666 8.87564 8.87577 10.6665 6.66663 10.6665C4.45749 10.6665 2.66663 8.87564 2.66663 6.6665C2.66663 4.45736 4.45749 2.6665 6.66663 2.6665C8.87577 2.6665 10.6666 4.45736 10.6666 6.6665ZM29.3333 25.3332C29.3333 27.5423 27.5424 29.3332 25.3333 29.3332C23.1242 29.3332 21.3333 27.5423 21.3333 25.3332C21.3333 23.124 23.1242 21.3332 25.3333 21.3332C27.5424 21.3332 29.3333 23.124 29.3333 25.3332Z" stroke="#262626" stroke-width="3" stroke-linecap="round" stroke-linejoin="round"/>
</svg>
