<svg width="48" height="48" viewBox="0 0 48 48" fill="none" xmlns="http://www.w3.org/2000/svg">
<path d="M18 41.9995V27.1995C18 26.0794 18 25.5193 18.218 25.0915C18.4097 24.7152 18.7157 24.4092 19.092 24.2175C19.5198 23.9995 20.0799 23.9995 21.2 23.9995H26.8C27.9201 23.9995 28.4802 23.9995 28.908 24.2175C29.2843 24.4092 29.5903 24.7152 29.782 25.0915C30 25.5193 30 26.0794 30 27.1995V41.9995M22.0354 5.52751L8.47078 16.0778C7.56404 16.783 7.11067 17.1356 6.78405 17.5772C6.49473 17.9684 6.2792 18.4091 6.14805 18.8776C6 19.4065 6 19.9809 6 21.1296V35.5995C6 37.8397 6 38.9598 6.43597 39.8154C6.81947 40.5681 7.43139 41.18 8.18404 41.5635C9.03968 41.9995 10.1598 41.9995 12.4 41.9995H35.6C37.8402 41.9995 38.9603 41.9995 39.816 41.5635C40.5686 41.18 41.1805 40.5681 41.564 39.8154C42 38.9598 42 37.8397 42 35.5995V21.1296C42 19.9809 42 19.4065 41.8519 18.8776C41.7208 18.4091 41.5053 17.9684 41.2159 17.5772C40.8893 17.1356 40.436 16.783 39.5292 16.0778L25.9646 5.52751C25.262 4.981 24.9106 4.70775 24.5227 4.60271C24.1804 4.51003 23.8196 4.51003 23.4773 4.60271C23.0894 4.70775 22.738 4.981 22.0354 5.52751Z" stroke="#262626" stroke-width="4" stroke-linecap="round" stroke-linejoin="round"/>
</svg>
