<svg width="32" height="32" viewBox="0 0 32 32" fill="none" xmlns="http://www.w3.org/2000/svg">
<path d="M2.66663 9.33301L13.5532 16.9536C14.4347 17.5707 14.8755 17.8792 15.355 17.9988C15.7785 18.1043 16.2214 18.1043 16.6449 17.9988C17.1244 17.8792 17.5652 17.5707 18.4467 16.9536L29.3333 9.33301M9.06663 26.6663H22.9333C25.1735 26.6663 26.2936 26.6663 27.1493 26.2304C27.9019 25.8469 28.5138 25.235 28.8973 24.4823C29.3333 23.6267 29.3333 22.5066 29.3333 20.2663V11.733C29.3333 9.4928 29.3333 8.37269 28.8973 7.51705C28.5138 6.7644 27.9019 6.15248 27.1493 5.76898C26.2936 5.33301 25.1735 5.33301 22.9333 5.33301H9.06663C6.82642 5.33301 5.70631 5.33301 4.85066 5.76898C4.09802 6.15248 3.48609 6.7644 3.1026 7.51705C2.66663 8.37269 2.66663 9.4928 2.66663 11.733V20.2663C2.66663 22.5066 2.66663 23.6267 3.1026 24.4823C3.48609 25.235 4.09802 25.8469 4.85066 26.2304C5.70631 26.6663 6.82642 26.6663 9.06663 26.6663Z" stroke="#262626" stroke-width="3" stroke-linecap="round" stroke-linejoin="round"/>
</svg>
