<svg width="32" height="32" viewBox="0 0 32 32" fill="none" xmlns="http://www.w3.org/2000/svg">
<path d="M5.33337 17.3333H26.1161C26.7327 17.3333 27.0411 17.3333 27.2172 17.204C27.3707 17.0913 27.4687 16.9182 27.4864 16.7285C27.5066 16.511 27.348 16.2466 27.0308 15.7179L24.3293 11.2155C24.2096 11.0159 24.1497 10.9162 24.1263 10.8097C24.1057 10.7155 24.1057 10.6179 24.1263 10.5237C24.1497 10.4172 24.2096 10.3174 24.3293 10.1179L27.0308 5.61546C27.348 5.0867 27.5066 4.82232 27.4864 4.60479C27.4687 4.41511 27.3707 4.24206 27.2172 4.12931C27.0411 4 26.7327 4 26.1161 4H5.33337L5.33338 28" stroke="#262626" stroke-width="3" stroke-linecap="round" stroke-linejoin="round"/>
</svg>
