<svg width="32" height="32" viewBox="0 0 32 32" fill="none" xmlns="http://www.w3.org/2000/svg">
<path d="M18.6667 14.667H10.6667M13.3334 20.0003H10.6667M21.3334 9.33366H10.6667M26.6667 9.06699V22.9337C26.6667 25.1739 26.6667 26.294 26.2307 27.1496C25.8472 27.9023 25.2353 28.5142 24.4827 28.8977C23.627 29.3337 22.5069 29.3337 20.2667 29.3337H11.7334C9.49316 29.3337 8.37306 29.3337 7.51741 28.8977C6.76476 28.5142 6.15284 27.9023 5.76935 27.1496C5.33337 26.294 5.33337 25.1739 5.33337 22.9337V9.06699C5.33337 6.82678 5.33337 5.70668 5.76935 4.85103C6.15284 4.09838 6.76476 3.48646 7.51741 3.10297C8.37306 2.66699 9.49316 2.66699 11.7334 2.66699H20.2667C22.5069 2.66699 23.627 2.66699 24.4827 3.10297C25.2353 3.48646 25.8472 4.09838 26.2307 4.85103C26.6667 5.70668 26.6667 6.82678 26.6667 9.06699Z" stroke="#262626" stroke-width="3" stroke-linecap="round" stroke-linejoin="round"/>
</svg>
