<svg width="48" height="48" viewBox="0 0 48 48" fill="none" xmlns="http://www.w3.org/2000/svg">
<path d="M20.999 27.0003L41.999 6.00035M21.2542 27.6565L26.5104 41.1725C26.9735 42.3632 27.205 42.9585 27.5386 43.1323C27.8278 43.283 28.1723 43.2832 28.4617 43.1329C28.7955 42.9595 29.0277 42.3644 29.4922 41.1742L42.6728 7.39874C43.0921 6.32438 43.3017 5.7872 43.1871 5.44394C43.0875 5.14585 42.8535 4.91191 42.5554 4.81233C42.2122 4.69765 41.675 4.90729 40.6007 5.32655L6.82516 18.5072C5.63501 18.9717 5.03993 19.2039 4.86651 19.5377C4.71618 19.8271 4.71638 20.1716 4.86706 20.4608C5.04087 20.7944 5.63621 21.0259 6.82691 21.489L20.3429 26.7452C20.5846 26.8392 20.7055 26.8862 20.8072 26.9588C20.8974 27.0231 20.9763 27.102 21.0406 27.1922C21.1132 27.2939 21.1602 27.4148 21.2542 27.6565Z" stroke="#262626" stroke-width="4" stroke-linecap="round" stroke-linejoin="round"/>
</svg>
