<svg width="18" height="18" viewBox="0 0 18 18" fill="none" xmlns="http://www.w3.org/2000/svg">
<path fill-rule="evenodd" clip-rule="evenodd" d="M8.73677 1.05662C8.67297 1.09228 6.9333 2.41975 4.87084 4.00657C0.78833 7.1476 0.978158 6.9843 1.01106 7.32669C1.04046 7.63246 1.26204 7.82705 1.58054 7.82676C1.76343 7.82662 1.8385 7.78453 2.31342 7.41599L2.6659 7.14248L2.68378 7.60736C2.70313 8.11025 2.72777 8.17888 2.94789 8.34325C3.08636 8.44663 3.4256 8.44663 3.56408 8.34325C3.81009 8.15957 3.80905 8.16433 3.82282 7.15382L3.83534 6.23547L6.37723 4.28641C7.77526 3.21443 8.9462 2.33735 8.97924 2.33735C9.01232 2.33735 10.1828 3.21443 11.5804 4.28641L14.1214 6.23547L14.1336 7.15382C14.1469 8.1644 14.1459 8.15953 14.3919 8.34325C14.5304 8.44663 14.8696 8.44663 15.0081 8.34325C15.2282 8.17892 15.2529 8.11022 15.2722 7.60779L15.2901 7.1433L15.6835 7.4485C15.8998 7.61634 16.1276 7.7782 16.1895 7.80817C16.4247 7.92189 16.6994 7.84883 16.8679 7.62774C17.0022 7.45151 17.0126 7.15267 16.8904 6.98105C16.8271 6.89222 10.0791 1.66301 9.37928 1.16051C9.14314 0.990928 8.91927 0.954736 8.73677 1.05662ZM5.97794 6.77481C5.52855 6.89565 5.065 7.26672 4.87034 7.66147C4.82392 7.75556 4.61006 8.4549 4.39506 9.21553C4.04355 10.4592 3.99441 10.6056 3.90722 10.6687C3.68853 10.8271 3.31095 11.2218 3.15803 11.4518C2.96284 11.7454 2.80419 12.139 2.73471 12.5023C2.66236 12.8803 2.66404 14.2806 2.73714 14.5612C2.85952 15.0312 3.18732 15.4526 3.5948 15.6639L3.81953 15.7804L3.83759 15.9794C3.87274 16.367 4.08653 16.6844 4.4424 16.8774L4.6686 17H5.83089H6.99317L7.17581 16.9036C7.2763 16.8506 7.40637 16.767 7.46491 16.7177C7.60589 16.5991 7.78535 16.255 7.8166 16.0434L7.84171 15.8735H8.97799H10.1143L10.1395 16.0418C10.1945 16.4082 10.3989 16.6942 10.7366 16.8774L10.9628 17H12.1251H13.2874L13.47 16.9036C13.5705 16.8506 13.7006 16.767 13.7591 16.7177C13.9203 16.5821 14.0887 16.2379 14.1145 15.9915L14.1365 15.7804L14.3612 15.6638C14.7687 15.4526 15.0965 15.0312 15.2188 14.5612C15.2894 14.2905 15.2913 12.9005 15.2217 12.5118C15.1574 12.1529 14.9965 11.7505 14.798 11.4518C14.6454 11.2224 14.2688 10.8285 14.0492 10.6687C13.963 10.606 13.9103 10.4514 13.5564 9.22165C13.3384 8.46437 13.1174 7.75627 13.0653 7.64809C12.8661 7.23489 12.343 6.84086 11.8788 6.75421C11.7596 6.73196 10.6355 6.71916 8.92842 6.72063C6.63823 6.72256 6.13794 6.73175 5.97794 6.77481ZM11.899 7.95536C12.089 8.0962 12.1449 8.23614 12.3868 9.1763C12.5182 9.68731 12.6258 10.1158 12.6258 10.1284C12.6258 10.1411 10.9825 10.1515 8.97413 10.1515H5.32245L5.34566 10.0591C5.4365 9.69711 5.87666 8.2331 5.91965 8.15002C5.9705 8.05164 6.10987 7.93183 6.22427 7.88813C6.25378 7.87687 7.51995 7.87054 9.03796 7.87411C11.7774 7.88051 11.7988 7.88112 11.899 7.95536ZM12.8156 11.3492C13.4538 11.5155 13.9607 12.0402 14.0914 12.6698C14.1164 12.7901 14.1277 13.1516 14.1209 13.6155C14.1108 14.3086 14.1042 14.374 14.0362 14.4651C13.9125 14.6305 13.7946 14.6953 13.5556 14.7291C13.3166 14.7628 13.1987 14.8277 13.075 14.9931C13.0133 15.0756 12.9993 15.1555 12.9892 15.4826L12.9771 15.8735H12.1251H11.2731L11.261 15.4826C11.2479 15.0602 11.2169 14.9806 11.0027 14.8207C10.9058 14.7484 10.8674 14.747 8.97799 14.747C7.08858 14.747 7.05017 14.7484 6.95329 14.8207C6.73911 14.9806 6.70803 15.0602 6.69498 15.4826L6.68286 15.8735H5.83089H4.97891L4.96679 15.4826C4.95667 15.1555 4.94269 15.0756 4.88096 14.9931C4.75733 14.8277 4.63935 14.7628 4.40038 14.7291C4.16142 14.6953 4.04344 14.6305 3.91981 14.4651C3.85175 14.374 3.84521 14.3086 3.83509 13.6155C3.82833 13.1516 3.83959 12.7901 3.86455 12.6698C3.99362 12.0481 4.4987 11.5197 5.12511 11.351C5.413 11.2735 12.5184 11.2718 12.8156 11.3492ZM5.31054 12.4895C4.96568 12.643 4.86887 13.1015 5.12071 13.3883C5.28068 13.5705 5.39862 13.5914 6.19495 13.5783C6.96549 13.5657 6.99199 13.5587 7.16976 13.3206C7.27315 13.1821 7.27315 12.8429 7.16976 12.7044C6.99031 12.464 6.97039 12.459 6.15919 12.4496C5.59839 12.4431 5.39326 12.4527 5.31054 12.4895ZM11.0326 12.4895C10.6877 12.643 10.5909 13.1015 10.8427 13.3883C11.0027 13.5705 11.1206 13.5914 11.917 13.5783C12.6875 13.5657 12.714 13.5587 12.8918 13.3206C12.9952 13.1821 12.9952 12.8429 12.8918 12.7044C12.7123 12.464 12.6924 12.459 11.8812 12.4496C11.3204 12.4431 11.1153 12.4527 11.0326 12.4895Z" fill="#6E6B7B" stroke="#6E6B7B" stroke-width="0.5"/>
</svg>
