<svg width="18" height="16" viewBox="0 0 18 16" fill="none" xmlns="http://www.w3.org/2000/svg">
<path d="M9.75 7.25H13.35C14.1901 7.25 14.6101 7.25 14.931 7.41349C15.2132 7.5573 15.4427 7.78677 15.5865 8.06901C15.75 8.38988 15.75 8.80992 15.75 9.65V14.75M9.75 14.75V3.65C9.75 2.80992 9.75 2.38988 9.58651 2.06901C9.4427 1.78677 9.21323 1.5573 8.93099 1.41349C8.61012 1.25 8.19008 1.25 7.35 1.25H4.65C3.80992 1.25 3.38988 1.25 3.06901 1.41349C2.78677 1.5573 2.5573 1.78677 2.41349 2.06901C2.25 2.38988 2.25 2.80992 2.25 3.65V14.75M16.5 14.75H1.5M4.875 4.25H7.125M4.875 7.25H7.125M4.875 10.25H7.125" stroke="#6E6B7B" stroke-width="1.5" stroke-linecap="round" stroke-linejoin="round"/>
</svg>
