<svg width="18" height="14" viewBox="0 0 18 14" fill="none" xmlns="http://www.w3.org/2000/svg">
<path d="M3.75 7.75H6M1.5 4.75L3 5.5L3.95298 2.64105C4.14969 2.05094 4.24804 1.75588 4.43047 1.53774C4.59156 1.3451 4.79844 1.19599 5.03213 1.10408C5.29677 1 5.60779 1 6.22982 1H11.7702C12.3922 1 12.7032 1 12.9679 1.10408C13.2016 1.19599 13.4084 1.3451 13.5695 1.53774C13.752 1.75588 13.8503 2.05094 14.047 2.64105L15 5.5L16.5 4.75M12 7.75H14.25M5.1 5.5H12.9C14.1601 5.5 14.7902 5.5 15.2715 5.74524C15.6948 5.96095 16.039 6.30516 16.2548 6.72852C16.5 7.20982 16.5 7.83988 16.5 9.1V11.125C16.5 11.4735 16.5 11.6477 16.4712 11.7926C16.3528 12.3877 15.8877 12.8528 15.2926 12.9712C15.1477 13 14.9735 13 14.625 13H14.25C13.4216 13 12.75 12.3284 12.75 11.5C12.75 11.2929 12.5821 11.125 12.375 11.125H5.625C5.41789 11.125 5.25 11.2929 5.25 11.5C5.25 12.3284 4.57843 13 3.75 13H3.375C3.02651 13 2.85226 13 2.70736 12.9712C2.11233 12.8528 1.64718 12.3877 1.52882 11.7926C1.5 11.6477 1.5 11.4735 1.5 11.125V9.1C1.5 7.83988 1.5 7.20982 1.74524 6.72852C1.96095 6.30516 2.30516 5.96095 2.72852 5.74524C3.20982 5.5 3.83988 5.5 5.1 5.5Z" stroke="#6E6B7B" stroke-width="1.5" stroke-linecap="round" stroke-linejoin="round"/>
</svg>
