<svg width="14" height="18" viewBox="0 0 14 18" fill="none" xmlns="http://www.w3.org/2000/svg">
<path d="M8.5 8.25H4M5.5 11.25H4M10 5.25H4M13 5.1V12.9C13 14.1601 13 14.7902 12.7548 15.2715C12.539 15.6948 12.1948 16.039 11.7715 16.2548C11.2902 16.5 10.6601 16.5 9.4 16.5H4.6C3.33988 16.5 2.70982 16.5 2.22852 16.2548C1.80516 16.039 1.46095 15.6948 1.24524 15.2715C1 14.7902 1 14.1601 1 12.9V5.1C1 3.83988 1 3.20982 1.24524 2.72852C1.46095 2.30516 1.80516 1.96095 2.22852 1.74524C2.70982 1.5 3.33988 1.5 4.6 1.5H9.4C10.6601 1.5 11.2902 1.5 11.7715 1.74524C12.1948 1.96095 12.539 2.30516 12.7548 2.72852C13 3.20982 13 3.83988 13 5.1Z" stroke-width="1.5" stroke-linecap="round" stroke-linejoin="round"/>
</svg>
