<svg width="15" height="16" viewBox="0 0 15 16" fill="none" xmlns="http://www.w3.org/2000/svg">
<path d="M1 8.75H12.6903C13.0371 8.75 13.2106 8.75 13.3096 8.67726C13.396 8.61384 13.4511 8.5165 13.4611 8.4098C13.4725 8.28745 13.3832 8.13872 13.2048 7.8413L11.6852 5.3087C11.6179 5.19646 11.5842 5.14034 11.571 5.08043C11.5594 5.02744 11.5594 4.97256 11.571 4.91957C11.5842 4.85966 11.6179 4.80354 11.6852 4.6913L13.2048 2.1587C13.3832 1.86127 13.4725 1.71256 13.4611 1.5902C13.4511 1.4835 13.396 1.38616 13.3096 1.32273C13.2106 1.25 13.0371 1.25 12.6903 1.25H1L1 14.75" stroke="#6E6B7B" stroke-width="1.5" stroke-linecap="round" stroke-linejoin="round"/>
</svg>
