<svg width="840" height="400" viewBox="0 0 840 400" fill="none" xmlns="http://www.w3.org/2000/svg">
<path d="M18 41.9995V27.1995C18 26.0794 18 25.5193 18.218 25.0915C18.4097 24.7152 18.7157 24.4092 19.092 24.2175C19.5198 23.9995 20.0799 23.9995 21.2 23.9995H26.8C27.9201 23.9995 28.4802 23.9995 28.908 24.2175C29.2843 24.4092 29.5903 24.7152 29.782 25.0915C30 25.5193 30 26.0794 30 27.1995V41.9995M22.0354 5.52751L8.47078 16.0778C7.56404 16.783 7.11067 17.1356 6.78405 17.5772C6.49473 17.9684 6.2792 18.4091 6.14805 18.8776C6 19.4065 6 19.9809 6 21.1296V35.5995C6 37.8397 6 38.9598 6.43597 39.8154C6.81947 40.5681 7.43139 41.18 8.18404 41.5635C9.03968 41.9995 10.1598 41.9995 12.4 41.9995H35.6C37.8402 41.9995 38.9603 41.9995 39.816 41.5635C40.5686 41.18 41.1805 40.5681 41.564 39.8154C42 38.9598 42 37.8397 42 35.5995V21.1296C42 19.9809 42 19.4065 41.8519 18.8776C41.7208 18.4091 41.5053 17.9684 41.2159 17.5772C40.8893 17.1356 40.436 16.783 39.5292 16.0778L25.9646 5.52751C25.262 4.981 24.9106 4.70775 24.5227 4.60271C24.1804 4.51003 23.8196 4.51003 23.4773 4.60271C23.0894 4.70775 22.738 4.981 22.0354 5.52751Z" stroke="#262626" stroke-width="4" stroke-linecap="round" stroke-linejoin="round"/>
<path d="M116 22H104M108 30H104M120 14H104M128 13.6V34.4C128 37.7603 128 39.4405 127.346 40.7239C126.771 41.8529 125.853 42.7708 124.724 43.346C123.44 44 121.76 44 118.4 44H105.6C102.24 44 100.56 44 99.2761 43.346C98.1471 42.7708 97.2292 41.8529 96.654 40.7239C96 39.4405 96 37.7603 96 34.4V13.6C96 10.2397 96 8.55953 96.654 7.27606C97.2292 6.14708 98.1471 5.2292 99.2761 4.65396C100.56 4 102.24 4 105.6 4H118.4C121.76 4 123.44 4 124.724 4.65396C125.853 5.2292 126.771 6.14708 127.346 7.27606C128 8.55953 128 10.2397 128 13.6Z" stroke="#262626" stroke-width="4" stroke-linecap="round" stroke-linejoin="round"/>
<path d="M202 22H211.6C213.84 22 214.96 22 215.816 22.436C216.569 22.8195 217.181 23.4314 217.564 24.184C218 25.0397 218 26.1598 218 28.4V42M202 42V12.4C202 10.1598 202 9.03969 201.564 8.18404C201.181 7.43139 200.569 6.81947 199.816 6.43597C198.96 6 197.84 6 195.6 6H188.4C186.16 6 185.04 6 184.184 6.43597C183.431 6.81947 182.819 7.43139 182.436 8.18404C182 9.03969 182 10.1598 182 12.4V42M220 42H180M189 14H195M189 22H195M189 30H195" stroke="#262626" stroke-width="4" stroke-linecap="round" stroke-linejoin="round"/>
<path d="M276 18L288 30L300 18" stroke="#262626" stroke-width="4" stroke-linecap="round" stroke-linejoin="round"/>
<path d="M388 30L376 18L364 30" stroke="#262626" stroke-width="4" stroke-linecap="round" stroke-linejoin="round"/>
<path d="M458 36L470 24L458 12" stroke="#262626" stroke-width="4" stroke-linecap="round" stroke-linejoin="round"/>
<path d="M558 36L546 24L558 12" stroke="#262626" stroke-width="4" stroke-linecap="round" stroke-linejoin="round"/>
<path d="M626 26H632M620 18L624 20L626.541 12.3761C627.066 10.8025 627.328 10.0157 627.815 9.43396C628.244 8.92027 628.796 8.52264 629.419 8.27755C630.125 8 630.954 8 632.613 8H647.387C649.046 8 649.875 8 650.581 8.27755C651.204 8.52264 651.756 8.92027 652.185 9.43396C652.672 10.0157 652.934 10.8025 653.459 12.3761L656 20L660 18M648 26H654M629.6 20H650.4C653.76 20 655.44 20 656.724 20.654C657.853 21.2292 658.771 22.1471 659.346 23.2761C660 24.5595 660 26.2397 660 29.6V35C660 35.9293 660 36.394 659.923 36.7804C659.608 38.3671 658.367 39.6075 656.78 39.9231C656.394 40 655.929 40 655 40H654C651.791 40 650 38.2091 650 36C650 35.4477 649.552 35 649 35H631C630.448 35 630 35.4477 630 36C630 38.2091 628.209 40 626 40H625C624.071 40 623.606 40 623.22 39.9231C621.633 39.6075 620.392 38.3671 620.077 36.7804C620 36.394 620 35.9293 620 35V29.6C620 26.2397 620 24.5595 620.654 23.2761C621.229 22.1471 622.147 21.2292 623.276 20.654C624.56 20 626.24 20 629.6 20Z" stroke="#262626" stroke-width="4" stroke-linecap="round" stroke-linejoin="round"/>
<path d="M727 10H727.869C733.963 10 737.011 10 738.167 11.0946C739.167 12.0407 739.61 13.4346 739.34 14.7844C739.028 16.346 736.54 18.1057 731.565 21.6251L723.435 27.3749C718.46 30.8943 715.972 32.654 715.66 34.2156C715.39 35.5654 715.833 36.9593 716.833 37.9054C717.989 39 721.037 39 727.131 39H729M720 10C720 13.3137 717.314 16 714 16C710.686 16 708 13.3137 708 10C708 6.68629 710.686 4 714 4C717.314 4 720 6.68629 720 10ZM748 38C748 41.3137 745.314 44 742 44C738.686 44 736 41.3137 736 38C736 34.6863 738.686 32 742 32C745.314 32 748 34.6863 748 38Z" stroke="#262626" stroke-width="4" stroke-linecap="round" stroke-linejoin="round"/>
<path d="M800 26H831.174C832.099 26 832.562 26 832.826 25.806C833.056 25.6369 833.203 25.3773 833.229 25.0928C833.26 24.7665 833.022 24.3699 832.546 23.5768L828.494 16.8232C828.314 16.5239 828.225 16.3742 828.189 16.2145C828.158 16.0732 828.158 15.9268 828.189 15.7855C828.225 15.6258 828.314 15.4761 828.494 15.1768L832.546 8.42319C833.022 7.63005 833.26 7.23349 833.229 6.90719C833.203 6.62267 833.056 6.36309 832.826 6.19396C832.562 6 832.099 6 831.174 6H800L800 42" stroke="#262626" stroke-width="4" stroke-linecap="round" stroke-linejoin="round"/>
<path d="M4 102L20.3298 113.431C21.6522 114.357 22.3134 114.819 23.0325 114.999C23.6678 115.157 24.3322 115.157 24.9675 114.999C25.6866 114.819 26.3478 114.357 27.6702 113.431L44 102M13.6 128H34.4C37.7603 128 39.4405 128 40.7239 127.346C41.8529 126.771 42.7708 125.853 43.346 124.724C44 123.44 44 121.76 44 118.4V105.6C44 102.24 44 100.56 43.346 99.2761C42.7708 98.1471 41.8529 97.2292 40.7239 96.654C39.4405 96 37.7603 96 34.4 96H13.6C10.2397 96 8.55953 96 7.27606 96.654C6.14708 97.2292 5.2292 98.1471 4.65396 99.2761C4 100.56 4 102.24 4 105.6V118.4C4 121.76 4 123.44 4.65396 124.724C5.2292 125.853 6.14708 126.771 7.27606 127.346C8.55953 128 10.2397 128 13.6 128Z" stroke="#262626" stroke-width="4" stroke-linecap="round" stroke-linejoin="round"/>
<path d="M126 130L120 124M120 124L126 118M120 124H132M112 119H103C100.209 119 98.8133 119 97.6777 119.344C95.1209 120.12 93.1201 122.121 92.3445 124.678C92 125.813 92 127.209 92 130M117 103C117 107.971 112.971 112 108 112C103.029 112 99 107.971 99 103C99 98.0294 103.029 94 108 94C112.971 94 117 98.0294 117 103Z" stroke="#262626" stroke-width="4" stroke-linecap="round" stroke-linejoin="round"/>
<path d="M194.79 126.742L195.959 129.371C196.306 130.154 196.874 130.819 197.591 131.285C198.309 131.752 199.147 132 200.003 132C200.86 132 201.698 131.752 202.415 131.285C203.133 130.819 203.7 130.154 204.048 129.371L205.217 126.742C205.633 125.809 206.333 125.032 207.217 124.52C208.106 124.007 209.135 123.788 210.157 123.896L213.017 124.2C213.868 124.29 214.727 124.131 215.49 123.743C216.253 123.354 216.887 122.753 217.315 122.011C217.743 121.27 217.947 120.421 217.902 119.566C217.857 118.711 217.565 117.888 217.061 117.196L215.368 114.869C214.765 114.034 214.443 113.03 214.448 112C214.448 110.973 214.773 109.973 215.377 109.142L217.07 106.816C217.574 106.124 217.866 105.3 217.911 104.445C217.956 103.591 217.752 102.741 217.323 102C216.896 101.258 216.262 100.657 215.499 100.268C214.736 99.8799 213.877 99.7211 213.026 99.8111L210.166 100.116C209.144 100.223 208.115 100.004 207.226 99.4911C206.34 98.9765 205.64 98.1947 205.226 97.2578L204.048 94.6289C203.7 93.8463 203.133 93.1814 202.415 92.7148C201.698 92.2482 200.86 91.9999 200.003 92C199.147 91.9999 198.309 92.2482 197.591 92.7148C196.874 93.1814 196.306 93.8463 195.959 94.6289L194.79 97.2578C194.376 98.1947 193.676 98.9765 192.79 99.4911C191.901 100.004 190.871 100.223 189.85 100.116L186.981 99.8111C186.13 99.7211 185.271 99.8799 184.508 100.268C183.745 100.657 183.111 101.258 182.683 102C182.255 102.741 182.051 103.591 182.096 104.445C182.141 105.3 182.433 106.124 182.937 106.816L184.63 109.142C185.234 109.973 185.559 110.973 185.559 112C185.559 113.027 185.234 114.027 184.63 114.858L182.937 117.184C182.433 117.876 182.141 118.7 182.096 119.555C182.051 120.409 182.255 121.259 182.683 122C183.112 122.741 183.745 123.342 184.508 123.731C185.271 124.119 186.13 124.278 186.981 124.189L189.841 123.884C190.863 123.777 191.892 123.996 192.781 124.509C193.67 125.022 194.374 125.804 194.79 126.742Z" stroke="#262626" stroke-width="4" stroke-linecap="round" stroke-linejoin="round"/>
<path d="M200 118C203.314 118 206 115.314 206 112C206 108.686 203.314 106 200 106C196.686 106 194 108.686 194 112C194 115.314 196.686 118 200 118Z" stroke="#262626" stroke-width="4" stroke-linecap="round" stroke-linejoin="round"/>
<path d="M305.324 122C301.866 127.978 295.403 132 288 132C276.954 132 268 123.046 268 112C268 100.954 276.954 92 288 92C295.403 92 301.866 96.022 305.324 102M288 104L280 112M280 112L288 120M280 112H308" stroke="#262626" stroke-width="4" stroke-linecap="round" stroke-linejoin="round"/>
<path d="M374.604 131.23C375.047 131.489 375.268 131.618 375.581 131.685C375.823 131.737 376.177 131.737 376.419 131.685C376.732 131.618 376.953 131.489 377.396 131.23C381.292 128.958 392 121.818 392 112.001V102.436C392 100.837 392 100.037 391.738 99.3501C391.507 98.743 391.132 98.2013 390.645 97.7718C390.093 97.2856 389.344 97.0049 387.847 96.4434L377.124 92.4221C376.708 92.2661 376.5 92.1882 376.286 92.1573C376.096 92.1299 375.904 92.1299 375.714 92.1573C375.5 92.1882 375.292 92.2661 374.876 92.4221L364.153 96.4434C362.656 97.0049 361.907 97.2856 361.355 97.7718C360.868 98.2013 360.493 98.743 360.262 99.3501C360 100.037 360 100.837 360 102.436V112.001C360 121.818 370.708 128.958 374.604 131.23Z" stroke="#262626" stroke-width="4" stroke-linecap="round" stroke-linejoin="round"/>
<path d="M460.999 115L481.999 94.0003M461.254 115.656L466.51 129.172C466.973 130.363 467.205 130.959 467.539 131.132C467.828 131.283 468.172 131.283 468.462 131.133C468.795 130.959 469.028 130.364 469.492 129.174L482.673 95.3987C483.092 94.3244 483.302 93.7872 483.187 93.4439C483.087 93.1458 482.854 92.9119 482.555 92.8123C482.212 92.6977 481.675 92.9073 480.601 93.3265L446.825 106.507C445.635 106.972 445.04 107.204 444.867 107.538C444.716 107.827 444.716 108.172 444.867 108.461C445.041 108.794 445.636 109.026 446.827 109.489L460.343 114.745C460.585 114.839 460.705 114.886 460.807 114.959C460.897 115.023 460.976 115.102 461.041 115.192C461.113 115.294 461.16 115.415 461.254 115.656Z" stroke="#262626" stroke-width="4" stroke-linecap="round" stroke-linejoin="round"/>
<path fill-rule="evenodd" clip-rule="evenodd" d="M551.276 90.1557C551.101 90.2538 546.317 93.9043 540.645 98.2681C529.418 106.906 529.94 106.457 530.03 107.398C530.111 108.239 530.721 108.774 531.596 108.774C532.099 108.773 532.306 108.657 533.612 107.644L534.581 106.892L534.63 108.17C534.684 109.553 534.751 109.742 535.357 110.194C535.737 110.478 536.67 110.478 537.051 110.194C537.728 109.689 537.725 109.702 537.763 106.923L537.797 104.398L544.787 99.0376C548.632 96.0897 551.852 93.6777 551.943 93.6777C552.034 93.6777 555.253 96.0897 559.096 99.0376L566.084 104.398L566.117 106.923C566.154 109.702 566.151 109.689 566.828 110.194C567.209 110.478 568.141 110.478 568.522 110.194C569.127 109.742 569.195 109.553 569.249 108.171L569.298 106.894L570.38 107.733C570.975 108.195 571.601 108.64 571.771 108.722C572.418 109.035 573.173 108.834 573.637 108.226C574.006 107.742 574.035 106.92 573.699 106.448C573.525 106.204 554.968 91.8233 553.043 90.4414C552.394 89.9751 551.778 89.8755 551.276 90.1557ZM543.689 105.881C542.454 106.213 541.179 107.233 540.643 108.319C540.516 108.578 539.928 110.501 539.336 112.593C538.37 116.013 538.235 116.415 537.995 116.589C537.393 117.025 536.355 118.11 535.935 118.742C535.398 119.55 534.962 120.632 534.77 121.631C534.571 122.671 534.576 126.522 534.777 127.293C535.114 128.586 536.015 129.745 537.136 130.326L537.754 130.646L537.803 131.193C537.9 132.259 538.488 133.132 539.467 133.663L540.089 134H543.285H546.481L546.983 133.735C547.26 133.589 547.618 133.359 547.779 133.224C548.166 132.897 548.66 131.951 548.746 131.369L548.815 130.902H551.939H555.064L555.134 131.365C555.285 132.373 555.847 133.159 556.776 133.663L557.398 134H560.594H563.79L564.293 133.735C564.569 133.589 564.927 133.359 565.088 133.224C565.531 132.851 565.994 131.904 566.065 131.227L566.125 130.646L566.743 130.326C567.864 129.745 568.765 128.586 569.102 127.293C569.296 126.549 569.301 122.726 569.11 121.657C568.933 120.67 568.49 119.564 567.944 118.742C567.525 118.112 566.489 117.028 565.885 116.589C565.648 116.417 565.503 115.991 564.53 112.61C563.931 110.527 563.323 108.58 563.18 108.282C562.632 107.146 561.193 106.062 559.917 105.824C559.589 105.763 556.498 105.728 551.803 105.732C545.505 105.737 544.129 105.762 543.689 105.881ZM559.972 109.127C560.495 109.515 560.648 109.899 561.314 112.485C561.675 113.89 561.971 115.068 561.971 115.103C561.971 115.138 557.452 115.167 551.929 115.167H541.887L541.951 114.912C542.2 113.917 543.411 109.891 543.529 109.663C543.669 109.392 544.052 109.063 544.367 108.942C544.448 108.911 547.93 108.894 552.104 108.904C559.638 108.921 559.697 108.923 559.972 109.127ZM562.493 118.46C564.248 118.917 565.642 120.36 566.001 122.092C566.07 122.423 566.101 123.417 566.082 124.693C566.055 126.599 566.037 126.779 565.849 127.029C565.509 127.484 565.185 127.662 564.528 127.755C563.871 127.848 563.546 128.026 563.206 128.481C563.037 128.708 562.998 128.928 562.97 129.827L562.937 130.902H560.594H558.251L558.218 129.827C558.182 128.666 558.096 128.447 557.507 128.007C557.241 127.808 557.135 127.804 551.939 127.804C546.744 127.804 546.638 127.808 546.372 128.007C545.783 128.447 545.697 128.666 545.661 129.827L545.628 130.902H543.285H540.942L540.909 129.827C540.881 128.928 540.842 128.708 540.673 128.481C540.333 128.026 540.008 127.848 539.351 127.755C538.694 127.662 538.369 127.484 538.029 127.029C537.842 126.779 537.824 126.599 537.796 124.693C537.778 123.417 537.809 122.423 537.878 122.092C538.232 120.382 539.621 118.929 541.344 118.465C542.136 118.252 561.676 118.248 562.493 118.46ZM541.854 121.596C540.906 122.018 540.639 123.279 541.332 124.068C541.772 124.569 542.096 124.626 544.286 124.59C546.405 124.556 546.478 124.536 546.967 123.882C547.251 123.501 547.251 122.568 546.967 122.187C546.473 121.526 546.419 121.512 544.188 121.486C542.646 121.468 542.081 121.495 541.854 121.596ZM557.59 121.596C556.641 122.018 556.375 123.279 557.067 124.068C557.507 124.569 557.832 124.626 560.022 124.59C562.141 124.556 562.213 124.536 562.702 123.882C562.987 123.501 562.987 122.568 562.702 122.187C562.209 121.526 562.154 121.512 559.923 121.486C558.381 121.468 557.817 121.495 557.59 121.596Z" fill="#262626" stroke="#262626"/>
<path d="M656 100L634 122L624 112" stroke="#262626" stroke-width="4" stroke-linecap="round" stroke-linejoin="round"/>
<path d="M748 130V126C748 122.272 745.45 119.14 742 118.252M735 94.5815C737.932 95.7683 740 98.6426 740 102C740 105.357 737.932 108.232 735 109.418M738 130C738 126.272 738 124.409 737.391 122.939C736.579 120.978 735.022 119.421 733.061 118.609C731.591 118 729.728 118 726 118H720C716.272 118 714.409 118 712.939 118.609C710.978 119.421 709.421 120.978 708.609 122.939C708 124.409 708 126.272 708 130M731 102C731 106.418 727.418 110 723 110C718.582 110 715 106.418 715 102C715 97.5817 718.582 94 723 94C727.418 94 731 97.5817 731 102Z" stroke="#262626" stroke-width="4" stroke-linecap="round" stroke-linejoin="round"/>
<path d="M814.565 94.9071C815.026 93.9732 815.257 93.5063 815.57 93.3571C815.842 93.2273 816.158 93.2273 816.43 93.3571C816.743 93.5063 816.974 93.9732 817.435 94.9071L821.808 103.767C821.944 104.043 822.012 104.181 822.112 104.288C822.2 104.382 822.305 104.459 822.423 104.514C822.555 104.575 822.707 104.598 823.011 104.642L832.794 106.072C833.824 106.222 834.339 106.298 834.578 106.549C834.785 106.768 834.882 107.069 834.843 107.368C834.798 107.712 834.425 108.075 833.679 108.801L826.603 115.693C826.382 115.908 826.272 116.016 826.201 116.143C826.138 116.257 826.097 116.381 826.082 116.51C826.064 116.655 826.09 116.806 826.142 117.11L827.812 126.845C827.988 127.871 828.076 128.385 827.911 128.689C827.767 128.955 827.511 129.14 827.214 129.195C826.873 129.259 826.412 129.016 825.49 128.531L816.745 123.932C816.472 123.789 816.336 123.717 816.192 123.689C816.065 123.664 815.935 123.664 815.808 123.689C815.664 123.717 815.528 123.789 815.255 123.932L806.51 128.531C805.588 129.016 805.127 129.259 804.786 129.195C804.489 129.14 804.233 128.955 804.089 128.689C803.924 128.385 804.012 127.871 804.188 126.845L805.858 117.11C805.91 116.806 805.936 116.655 805.918 116.51C805.903 116.381 805.862 116.257 805.799 116.143C805.728 116.016 805.618 115.908 805.397 115.693L798.321 108.801C797.575 108.075 797.202 107.712 797.157 107.368C797.118 107.069 797.215 106.768 797.423 106.549C797.661 106.298 798.176 106.222 799.206 106.072L808.989 104.642C809.293 104.598 809.445 104.575 809.577 104.514C809.695 104.459 809.8 104.382 809.888 104.288C809.988 104.181 810.056 104.043 810.192 103.767L814.565 94.9071Z" stroke="#262626" stroke-width="4" stroke-linecap="round" stroke-linejoin="round"/>
<path d="M28 198H16M20 206H16M32 190H16M40 189.6V210.4C40 213.76 40 215.44 39.346 216.724C38.7708 217.853 37.8529 218.771 36.7239 219.346C35.4405 220 33.7603 220 30.4 220H17.6C14.2397 220 12.5595 220 11.2761 219.346C10.1471 218.771 9.2292 217.853 8.65396 216.724C8 215.44 8 213.76 8 210.4V189.6C8 186.24 8 184.56 8.65396 183.276C9.2292 182.147 10.1471 181.229 11.2761 180.654C12.5595 180 14.2397 180 17.6 180H30.4C33.7603 180 35.4405 180 36.7239 180.654C37.8529 181.229 38.7708 182.147 39.346 183.276C40 184.56 40 186.24 40 189.6Z" stroke="#262626" stroke-width="4" stroke-linecap="round" stroke-linejoin="round"/>
<path d="M104 204V212M120 200V212M112 192V212M128 189.6V210.4C128 213.76 128 215.44 127.346 216.724C126.771 217.853 125.853 218.771 124.724 219.346C123.44 220 121.76 220 118.4 220H105.6C102.24 220 100.56 220 99.2761 219.346C98.1471 218.771 97.2292 217.853 96.654 216.724C96 215.44 96 213.76 96 210.4V189.6C96 186.24 96 184.56 96.654 183.276C97.2292 182.147 98.1471 181.229 99.2761 180.654C100.56 180 102.24 180 105.6 180H118.4C121.76 180 123.44 180 124.724 180.654C125.853 181.229 126.771 182.147 127.346 183.276C128 184.56 128 186.24 128 189.6Z" stroke="#262626" stroke-width="4" stroke-linecap="round" stroke-linejoin="round"/>
<path d="M216 186C216 189.314 208.837 192 200 192C191.163 192 184 189.314 184 186M216 186C216 182.686 208.837 180 200 180C191.163 180 184 182.686 184 186M216 186V214C216 217.314 208.837 220 200 220C191.163 220 184 217.314 184 214V186M216 195.333C216 198.647 208.837 201.333 200 201.333C191.163 201.333 184 198.647 184 195.333M216 204.66C216 207.974 208.837 210.66 200 210.66C191.163 210.66 184 207.974 184 204.66" stroke="#262626" stroke-width="4" stroke-linecap="round" stroke-linejoin="round"/>
<path d="M272 191.993C271.672 191.985 271.434 191.966 271.22 191.923C269.633 191.608 268.392 190.367 268.077 188.78C268 188.394 268 187.929 268 187C268 186.071 268 185.606 268.077 185.22C268.392 183.633 269.633 182.392 271.22 182.077C271.606 182 272.071 182 273 182H303C303.929 182 304.394 182 304.78 182.077C306.367 182.392 307.608 183.633 307.923 185.22C308 185.606 308 186.071 308 187C308 187.929 308 188.394 307.923 188.78C307.608 190.367 306.367 191.608 304.78 191.923C304.566 191.966 304.328 191.985 304 191.993M284 202H292M272 192H304V208.4C304 211.76 304 213.44 303.346 214.724C302.771 215.853 301.853 216.771 300.724 217.346C299.44 218 297.76 218 294.4 218H281.6C278.24 218 276.56 218 275.276 217.346C274.147 216.771 273.229 215.853 272.654 214.724C272 213.44 272 211.76 272 208.4V192Z" stroke="#262626" stroke-width="4" stroke-linecap="round" stroke-linejoin="round"/>
<path d="M368.761 193.707C370.153 196.606 372.05 199.323 374.453 201.726C376.856 204.13 379.574 206.027 382.473 207.419C382.722 207.539 382.847 207.599 383.005 207.645C383.566 207.808 384.254 207.691 384.729 207.351C384.863 207.255 384.977 207.141 385.205 206.912C385.905 206.213 386.254 205.863 386.606 205.635C387.932 204.773 389.641 204.773 390.967 205.635C391.318 205.863 391.668 206.213 392.367 206.912L392.757 207.302C393.82 208.365 394.351 208.896 394.64 209.467C395.214 210.602 395.214 211.943 394.64 213.078C394.351 213.648 393.82 214.18 392.757 215.243L392.441 215.558C391.382 216.617 390.853 217.147 390.132 217.551C389.333 218 388.092 218.323 387.176 218.32C386.35 218.318 385.786 218.158 384.657 217.837C378.59 216.115 372.865 212.866 368.089 208.09C363.313 203.314 360.064 197.59 358.342 191.523C358.022 190.394 357.862 189.83 357.859 189.004C357.857 188.087 358.179 186.846 358.628 186.047C359.033 185.327 359.562 184.798 360.622 183.738L360.937 183.423C362 182.36 362.531 181.829 363.102 181.54C364.237 180.966 365.578 180.966 366.713 181.54C367.283 181.829 367.815 182.36 368.878 183.423L369.268 183.813C369.967 184.512 370.316 184.862 370.545 185.213C371.407 186.539 371.407 188.248 370.545 189.574C370.316 189.925 369.967 190.275 369.268 190.974C369.039 191.203 368.925 191.317 368.829 191.451C368.489 191.926 368.372 192.614 368.535 193.175C368.581 193.333 368.641 193.457 368.761 193.707Z" stroke="#262626" stroke-width="4" stroke-linecap="round" stroke-linejoin="round"/>
<path d="M464 186V214M450 200H478" stroke="#262626" stroke-width="4" stroke-linecap="round" stroke-linejoin="round"/>
<path d="M533.752 212.232C533.844 211.405 533.89 210.991 534.015 210.605C534.126 210.262 534.283 209.936 534.481 209.635C534.705 209.296 534.999 209.002 535.587 208.413L562 182.001C564.209 179.791 567.791 179.791 570 182.001C572.209 184.21 572.209 187.791 570 190.001L543.587 216.413C542.999 217.002 542.705 217.296 542.366 217.519C542.065 217.718 541.739 217.875 541.396 217.986C541.009 218.111 540.596 218.157 539.769 218.249L533 219.001L533.752 212.232Z" stroke="#262626" stroke-width="4" stroke-linecap="round" stroke-linejoin="round"/>
<path d="M638 184H629.6C626.24 184 624.56 184 623.276 184.654C622.147 185.23 621.229 186.148 620.654 187.277C620 188.56 620 190.24 620 193.6V210.4C620 213.761 620 215.441 620.654 216.724C621.229 217.853 622.147 218.771 623.276 219.346C624.56 220 626.24 220 629.6 220H646.4C649.76 220 651.44 220 652.724 219.346C653.853 218.771 654.771 217.853 655.346 216.724C656 215.441 656 213.761 656 210.4V202M632 208H635.349C636.327 208 636.817 208 637.277 207.89C637.685 207.792 638.075 207.63 638.433 207.411C638.837 207.164 639.183 206.818 639.875 206.126L659 187C660.657 185.344 660.657 182.657 659 181C657.343 179.344 654.657 179.344 653 181L633.874 200.126C633.183 200.818 632.837 201.164 632.589 201.567C632.37 201.925 632.208 202.315 632.11 202.724C632 203.184 632 203.673 632 204.651V208Z" stroke="#262626" stroke-width="4" stroke-linecap="round" stroke-linejoin="round"/>
<path d="M720 208V213.6C720 215.84 720 216.96 720.436 217.816C720.819 218.569 721.431 219.181 722.184 219.564C723.04 220 724.16 220 726.4 220H741.6C743.84 220 744.96 220 745.816 219.564C746.569 219.181 747.181 218.569 747.564 217.816C748 216.96 748 215.84 748 213.6V198.4C748 196.16 748 195.04 747.564 194.184C747.181 193.431 746.569 192.819 745.816 192.436C744.96 192 743.84 192 741.6 192H736M714.4 208H729.6C731.84 208 732.96 208 733.816 207.564C734.569 207.181 735.181 206.569 735.564 205.816C736 204.96 736 203.84 736 201.6V186.4C736 184.16 736 183.04 735.564 182.184C735.181 181.431 734.569 180.819 733.816 180.436C732.96 180 731.84 180 729.6 180H714.4C712.16 180 711.04 180 710.184 180.436C709.431 180.819 708.819 181.431 708.436 182.184C708 183.04 708 184.16 708 186.4V201.6C708 203.84 708 204.96 708.436 205.816C708.819 206.569 709.431 207.181 710.184 207.564C711.04 208 712.16 208 714.4 208Z" stroke="#262626" stroke-width="4" stroke-linecap="round" stroke-linejoin="round"/>
<path d="M824 188V186.4C824 184.16 824 183.04 823.564 182.184C823.181 181.431 822.569 180.819 821.816 180.436C820.96 180 819.84 180 817.6 180H814.4C812.16 180 811.04 180 810.184 180.436C809.431 180.819 808.819 181.431 808.436 182.184C808 183.04 808 184.16 808 186.4V188M812 199V209M820 199V209M798 188H834M830 188V210.4C830 213.76 830 215.44 829.346 216.724C828.771 217.853 827.853 218.771 826.724 219.346C825.44 220 823.76 220 820.4 220H811.6C808.24 220 806.56 220 805.276 219.346C804.147 218.771 803.229 217.853 802.654 216.724C802 215.44 802 213.76 802 210.4V188" stroke="#262626" stroke-width="4" stroke-linecap="round" stroke-linejoin="round"/>
<path d="M4.84025 289.426C4.56787 288.995 4.43168 288.779 4.35545 288.447C4.29818 288.197 4.29818 287.803 4.35545 287.553C4.43168 287.221 4.56787 287.005 4.84024 286.574C7.09106 283.01 13.7908 274 24.0008 274C34.2108 274 40.9106 283.01 43.1614 286.574C43.4337 287.005 43.5699 287.221 43.6462 287.553C43.7034 287.803 43.7034 288.197 43.6462 288.447C43.5699 288.779 43.4337 288.995 43.1614 289.426C40.9106 292.99 34.2108 302 24.0008 302C13.7908 302 7.09106 292.99 4.84025 289.426Z" stroke="#262626" stroke-width="4" stroke-linecap="round" stroke-linejoin="round"/>
<path d="M24.0008 294C27.3145 294 30.0008 291.314 30.0008 288C30.0008 284.686 27.3145 282 24.0008 282C20.6871 282 18.0008 284.686 18.0008 288C18.0008 291.314 20.6871 294 24.0008 294Z" stroke="#262626" stroke-width="4" stroke-linecap="round" stroke-linejoin="round"/>
<path d="M109.486 274.185C110.299 274.064 111.137 274 112.001 274C122.211 274 128.911 283.01 131.161 286.574C131.434 287.005 131.57 287.221 131.646 287.553C131.704 287.803 131.703 288.197 131.646 288.447C131.57 288.78 131.433 288.997 131.158 289.431C130.559 290.38 129.644 291.714 128.433 293.161M101.449 277.43C97.1245 280.363 94.1889 284.439 92.8422 286.571C92.5686 287.004 92.4317 287.22 92.3555 287.553C92.2982 287.803 92.2982 288.197 92.3554 288.447C92.4317 288.779 92.5679 288.995 92.8403 289.426C95.0911 292.99 101.791 302 112.001 302C116.118 302 119.664 300.535 122.578 298.553M94.0008 270L130.001 306M107.758 283.757C106.672 284.843 106.001 286.343 106.001 288C106.001 291.314 108.687 294 112.001 294C113.658 294 115.158 293.328 116.243 292.243" stroke="#262626" stroke-width="4" stroke-linecap="round" stroke-linejoin="round"/>
<path d="M184 288H216M216 288L204 276M216 288L204 300" stroke="#262626" stroke-width="4" stroke-linecap="round" stroke-linejoin="round"/>
<path d="M300 276L276 300M276 276L300 300" stroke="#262626" stroke-width="4" stroke-linecap="round" stroke-linejoin="round"/>
<path d="M356 284C356 284 356.243 282.302 363.272 275.272C370.302 268.243 381.698 268.243 388.728 275.272C391.218 277.763 392.827 280.801 393.552 284M356 284V272M356 284H368M396 292C396 292 395.757 293.698 388.728 300.728C381.698 307.757 370.302 307.757 363.272 300.728C360.782 298.237 359.173 295.199 358.448 292M396 292V304M396 292H384" stroke="#262626" stroke-width="4" stroke-linecap="round" stroke-linejoin="round"/>
<path d="M484 284C484 284 479.99 278.536 476.732 275.276C473.475 272.017 468.973 270 464 270C454.059 270 446 278.059 446 288C446 297.941 454.059 306 464 306C472.206 306 479.13 300.509 481.296 293M484 284V272M484 284H472" stroke="#262626" stroke-width="4" stroke-linecap="round" stroke-linejoin="round"/>
<path d="M570 306L561.3 297.3M566 286C566 294.837 558.837 302 550 302C541.163 302 534 294.837 534 286C534 277.163 541.163 270 550 270C558.837 270 566 277.163 566 286Z" stroke="#262626" stroke-width="4" stroke-linecap="round" stroke-linejoin="round"/>
<path d="M622 288H658M622 276H658M622 300H658" stroke="#262626" stroke-width="4" stroke-linecap="round" stroke-linejoin="round"/>
<path d="M716 272V304M740 272V280M728 272V292" stroke="#262626" stroke-width="4" stroke-linecap="round" stroke-linejoin="round"/>
<path d="M834 282L834 270M834 270H822M834 270L816 288M812 270H807.6C804.24 270 802.56 270 801.276 270.654C800.147 271.229 799.229 272.147 798.654 273.276C798 274.56 798 276.24 798 279.6V296.4C798 299.76 798 301.44 798.654 302.724C799.229 303.853 800.147 304.771 801.276 305.346C802.56 306 804.24 306 807.6 306H824.4C827.76 306 829.44 306 830.724 305.346C831.853 304.771 832.771 303.853 833.346 302.724C834 301.44 834 299.76 834 296.4V292" stroke="#262626" stroke-width="4" stroke-linecap="round" stroke-linejoin="round"/>
<path d="M248 386L254 380L248 374M240 366L234 372L240 378M235.6 394H252.4C255.76 394 257.44 394 258.724 393.346C259.853 392.771 260.771 391.853 261.346 390.724C262 389.44 262 387.76 262 384.4V367.6C262 364.24 262 362.56 261.346 361.276C260.771 360.147 259.853 359.229 258.724 358.654C257.44 358 255.76 358 252.4 358H235.6C232.24 358 230.56 358 229.276 358.654C228.147 359.229 227.229 360.147 226.654 361.276C226 362.56 226 364.24 226 367.6V384.4C226 387.76 226 389.44 226.654 390.724C227.229 391.853 228.147 392.771 229.276 393.346C230.56 394 232.24 394 235.6 394Z" stroke="#262626" stroke-width="4" stroke-linecap="round" stroke-linejoin="round"/>
<path d="M344 366V362.4C344 360.16 344 359.04 343.564 358.184C343.181 357.431 342.569 356.819 341.816 356.436C340.96 356 339.84 356 337.6 356H326.4C324.16 356 323.04 356 322.184 356.436C321.431 356.819 320.819 357.431 320.436 358.184C320 359.04 320 360.16 320 362.4V366M320 388C318.14 388 317.21 388 316.447 387.796C314.377 387.241 312.759 385.623 312.204 383.553C312 382.79 312 381.86 312 380V375.6C312 372.24 312 370.56 312.654 369.276C313.229 368.147 314.147 367.229 315.276 366.654C316.56 366 318.24 366 321.6 366H342.4C345.76 366 347.44 366 348.724 366.654C349.853 367.229 350.771 368.147 351.346 369.276C352 370.56 352 372.24 352 375.6V380C352 381.86 352 382.79 351.796 383.553C351.241 385.623 349.623 387.241 347.553 387.796C346.79 388 345.86 388 344 388M338 373H344M326.4 396H337.6C339.84 396 340.96 396 341.816 395.564C342.569 395.181 343.181 394.569 343.564 393.816C344 392.96 344 391.84 344 389.6V386.4C344 384.16 344 383.04 343.564 382.184C343.181 381.431 342.569 380.819 341.816 380.436C340.96 380 339.84 380 337.6 380H326.4C324.16 380 323.04 380 322.184 380.436C321.431 380.819 320.819 381.431 320.436 382.184C320 383.04 320 384.16 320 386.4V389.6C320 391.84 320 392.96 320.436 393.816C320.819 394.569 321.431 395.181 322.184 395.564C323.04 396 324.16 396 326.4 396Z" stroke="#262626" stroke-width="4" stroke-linecap="round" stroke-linejoin="round"/>
<path d="M420 364C421.105 364 422 363.105 422 362C422 360.895 421.105 360 420 360C418.895 360 418 360.895 418 362C418 363.105 418.895 364 420 364Z" stroke="#262626" stroke-width="4" stroke-linecap="round" stroke-linejoin="round"/>
<path d="M420 378C421.105 378 422 377.105 422 376C422 374.895 421.105 374 420 374C418.895 374 418 374.895 418 376C418 377.105 418.895 378 420 378Z" stroke="#262626" stroke-width="4" stroke-linecap="round" stroke-linejoin="round"/>
<path d="M420 392C421.105 392 422 391.105 422 390C422 388.895 421.105 388 420 388C418.895 388 418 388.895 418 390C418 391.105 418.895 392 420 392Z" stroke="#262626" stroke-width="4" stroke-linecap="round" stroke-linejoin="round"/>
<path d="M434 364C435.105 364 436 363.105 436 362C436 360.895 435.105 360 434 360C432.895 360 432 360.895 432 362C432 363.105 432.895 364 434 364Z" stroke="#262626" stroke-width="4" stroke-linecap="round" stroke-linejoin="round"/>
<path d="M434 378C435.105 378 436 377.105 436 376C436 374.895 435.105 374 434 374C432.895 374 432 374.895 432 376C432 377.105 432.895 378 434 378Z" stroke="#262626" stroke-width="4" stroke-linecap="round" stroke-linejoin="round"/>
<path d="M434 392C435.105 392 436 391.105 436 390C436 388.895 435.105 388 434 388C432.895 388 432 388.895 432 390C432 391.105 432.895 392 434 392Z" stroke="#262626" stroke-width="4" stroke-linecap="round" stroke-linejoin="round"/>
<path d="M406 364C407.105 364 408 363.105 408 362C408 360.895 407.105 360 406 360C404.895 360 404 360.895 404 362C404 363.105 404.895 364 406 364Z" stroke="#262626" stroke-width="4" stroke-linecap="round" stroke-linejoin="round"/>
<path d="M406 378C407.105 378 408 377.105 408 376C408 374.895 407.105 374 406 374C404.895 374 404 374.895 404 376C404 377.105 404.895 378 406 378Z" stroke="#262626" stroke-width="4" stroke-linecap="round" stroke-linejoin="round"/>
<path d="M406 392C407.105 392 408 391.105 408 390C408 388.895 407.105 388 406 388C404.895 388 404 388.895 404 390C404 391.105 404.895 392 406 392Z" stroke="#262626" stroke-width="4" stroke-linecap="round" stroke-linejoin="round"/>
<path d="M508 378C509.105 378 510 377.105 510 376C510 374.895 509.105 374 508 374C506.895 374 506 374.895 506 376C506 377.105 506.895 378 508 378Z" stroke="#262626" stroke-width="4" stroke-linecap="round" stroke-linejoin="round"/>
<path d="M508 364C509.105 364 510 363.105 510 362C510 360.895 509.105 360 508 360C506.895 360 506 360.895 506 362C506 363.105 506.895 364 508 364Z" stroke="#262626" stroke-width="4" stroke-linecap="round" stroke-linejoin="round"/>
<path d="M508 392C509.105 392 510 391.105 510 390C510 388.895 509.105 388 508 388C506.895 388 506 388.895 506 390C506 391.105 506.895 392 508 392Z" stroke="#262626" stroke-width="4" stroke-linecap="round" stroke-linejoin="round"/>
<path d="M596 378C597.105 378 598 377.105 598 376C598 374.895 597.105 374 596 374C594.895 374 594 374.895 594 376C594 377.105 594.895 378 596 378Z" stroke="#262626" stroke-width="4" stroke-linecap="round" stroke-linejoin="round"/>
<path d="M610 378C611.105 378 612 377.105 612 376C612 374.895 611.105 374 610 374C608.895 374 608 374.895 608 376C608 377.105 608.895 378 610 378Z" stroke="#262626" stroke-width="4" stroke-linecap="round" stroke-linejoin="round"/>
<path d="M582 378C583.105 378 584 377.105 584 376C584 374.895 583.105 374 582 374C580.895 374 580 374.895 580 376C580 377.105 580.895 378 582 378Z" stroke="#262626" stroke-width="4" stroke-linecap="round" stroke-linejoin="round"/>
</svg>
