<svg width="14" height="18" viewBox="0 0 14 18" fill="none" xmlns="http://www.w3.org/2000/svg">
<path d="M6.47651 16.2109C6.64255 16.3078 6.72557 16.3562 6.84274 16.3814C6.93367 16.4009 7.06633 16.4009 7.15726 16.3814C7.27443 16.3562 7.35745 16.3078 7.52349 16.2109C8.98453 15.3586 13 12.6811 13 8.99978V5.41298C13 4.81335 13 4.51353 12.9019 4.25581C12.8153 4.02814 12.6745 3.82499 12.4918 3.66393C12.2849 3.48161 12.0042 3.37634 11.4427 3.16579L7.42135 1.65779C7.26543 1.59932 7.18747 1.57008 7.10726 1.55849C7.03612 1.54821 6.96388 1.54821 6.89274 1.55849C6.81253 1.57008 6.73457 1.59932 6.57865 1.65779L2.5573 3.16579C1.99585 3.37634 1.71512 3.48161 1.50824 3.66393C1.32549 3.82499 1.18471 4.02814 1.09807 4.25581C1 4.51353 1 4.81335 1 5.41298V8.99978C1 12.6811 5.01547 15.3586 6.47651 16.2109Z" stroke="#6E6B7B" stroke-width="1.5" stroke-linecap="round" stroke-linejoin="round"/>
</svg>
