<svg width="16" height="16" viewBox="0 0 16 16" fill="none" xmlns="http://www.w3.org/2000/svg">
<path d="M6.87464 9.12513L14.7496 1.25013M6.97033 9.37118L8.94141 14.4397C9.11505 14.8862 9.20187 15.1094 9.32698 15.1746C9.43543 15.2311 9.56461 15.2312 9.67313 15.1748C9.79831 15.1098 9.88539 14.8866 10.0596 14.4403L15.0023 1.77453C15.1595 1.37164 15.2381 1.1702 15.1951 1.04148C15.1578 0.929693 15.0701 0.841966 14.9583 0.804622C14.8296 0.76162 14.6281 0.840232 14.2252 0.997455L1.55943 5.94021C1.11313 6.11438 0.889975 6.20146 0.824943 6.32664C0.768567 6.43516 0.768643 6.56434 0.825146 6.67279C0.890326 6.7979 1.11358 6.88472 1.56009 7.05836L6.62859 9.02944C6.71923 9.06469 6.76455 9.08231 6.80271 9.10953C6.83653 9.13366 6.86611 9.16324 6.89024 9.19706C6.91746 9.23522 6.93508 9.28054 6.97033 9.37118Z" stroke="#6E6B7B" stroke-width="1.5" stroke-linecap="round" stroke-linejoin="round"/>
</svg>
