<svg width="18" height="20" viewBox="0 0 18 20" fill="none" xmlns="http://www.w3.org/2000/svg">
<path d="M15.036 10.5295L8.48058 16.9618C6.77706 18.6421 4.48489 18.4758 3.02218 17.0231C1.55055 15.5878 1.38109 13.3562 3.08461 11.676L12.0303 2.90701C13.056 1.90059 14.5633 1.76057 15.5443 2.71448C16.5166 3.68589 16.3739 5.15613 15.3571 6.16254L6.61652 14.739C6.17949 15.1853 5.64436 15.054 5.34111 14.7565C5.03786 14.4502 4.913 13.9426 5.35003 13.4962L11.4595 7.51901C11.7271 7.24772 11.7449 6.86265 11.4863 6.60886C11.2276 6.36382 10.8352 6.38132 10.5676 6.64387L4.4403 12.6561C3.53056 13.5487 3.56624 14.914 4.36894 15.7016C5.243 16.5592 6.56301 16.5418 7.48165 15.6403L16.2579 7.02893C17.9258 5.39242 17.8544 3.23956 16.4006 1.81308C14.9825 0.421605 12.7528 0.316588 11.0849 1.95311L2.09461 10.7833C-0.108371 12.9449 0.0610896 16.0342 2.05002 17.9857C4.03894 19.9286 7.18733 20.0948 9.39032 17.942L15.9903 11.4659C16.249 11.2121 16.249 10.7483 15.9815 10.512C15.7228 10.2407 15.3036 10.2757 15.036 10.5295Z" fill="#D7A87E"/>
</svg>
